<?xml version="1.0" encoding="UTF-8" standalone="no"?><!DOCTYPE svg PUBLIC "-//W3C//DTD SVG 1.1//EN" "http://www.w3.org/Graphics/SVG/1.1/DTD/svg11.dtd"><svg width="100%" height="100%" viewBox="0 0 85 23" version="1.1" xmlns="http://www.w3.org/2000/svg" xmlns:xlink="http://www.w3.org/1999/xlink" xml:space="preserve" xmlns:serif="http://www.serif.com/" style="fill-rule:evenodd;clip-rule:evenodd;stroke-linejoin:round;stroke-miterlimit:2;"><g><g><path d="M0.719,21.87l29.157,0l-0.717,0.754l-29.159,0l0.719,-0.754Z" style="fill:url(#_Linear1);fill-rule:nonzero;"/><path d="M18.925,0l10.948,0l0,21.896l-0.714,0.728l-10.234,-11.676l-0.717,-10.227l0.717,-0.721Z" style="fill:url(#_Linear2);fill-rule:nonzero;"/><path d="M18.925,21.896l-0.717,0.728l-10.952,-1.442l0,-20.461l0.721,-0.721l10.948,11.309l0,10.587Z" style="fill:url(#_Linear3);fill-rule:nonzero;"/><path d="M18.204,0.721l10.948,0l0,21.896l-10.948,-10.948l0,-10.948Z" style="fill:url(#_Linear4);fill-rule:nonzero;"/><path d="M18.204,22.624l-10.948,0l0,-21.903l10.948,10.948l0,10.955Z" style="fill:url(#_Linear5);fill-rule:nonzero;"/></g><g><path d="M67.309,15.025l15.618,-0l-0.742,0.928l-15.618,0l0.742,-0.928Z" style="fill:url(#_Linear6);fill-rule:nonzero;"/><path d="M83.625,8.412c0.13,-0 0.247,0.03 0.353,0.09c0.106,0.061 0.19,0.144 0.25,0.251c0.061,0.105 0.091,0.222 0.091,0.351c-0,0.129 -0.031,0.247 -0.093,0.355c-0.062,0.106 -0.146,0.191 -0.252,0.252c-0.107,0.062 -0.224,0.093 -0.353,0.093c-0.129,-0 -0.247,-0.031 -0.353,-0.093c-0.106,-0.061 -0.189,-0.146 -0.251,-0.252c-0.06,-0.107 -0.091,-0.224 -0.091,-0.351c0,-0.128 0.031,-0.245 0.091,-0.351c0.062,-0.107 0.146,-0.191 0.253,-0.253c0.106,-0.061 0.224,-0.092 0.355,-0.092Zm-0.004,1.284c0.109,-0 0.207,-0.027 0.295,-0.079c0.09,-0.053 0.16,-0.124 0.212,-0.213c0.051,-0.091 0.076,-0.191 0.076,-0.3c0,-0.109 -0.025,-0.208 -0.074,-0.296c-0.051,-0.089 -0.12,-0.16 -0.208,-0.211c-0.088,-0.051 -0.187,-0.077 -0.297,-0.077c-0.111,0 -0.211,0.026 -0.3,0.079c-0.09,0.051 -0.16,0.122 -0.211,0.211c-0.05,0.089 -0.075,0.189 -0.075,0.298c-0,0.109 0.025,0.208 0.075,0.298c0.051,0.089 0.121,0.16 0.209,0.213c0.089,0.051 0.189,0.077 0.298,0.077Zm0.361,-0.706c-0,0.057 -0.014,0.107 -0.042,0.147c-0.026,0.041 -0.064,0.072 -0.114,0.093l0.173,0.266l-0.169,0l-0.154,-0.236l-0.176,-0l0,0.236l-0.169,0l-0,-0.777l0.323,0c0.101,0 0.181,0.025 0.239,0.073c0.059,0.049 0.089,0.115 0.089,0.198Zm-0.338,0.138c0.056,-0 0.098,-0.012 0.129,-0.036c0.03,-0.025 0.045,-0.059 0.045,-0.102c-0,-0.044 -0.015,-0.077 -0.045,-0.101c-0.031,-0.024 -0.073,-0.036 -0.129,-0.036l-0.146,0l0,0.275l0.146,-0Z" style="fill:#0b0e11;fill-opacity:0.75;fill-rule:nonzero;"/><path d="M41.711,15.947l0,-7.348l-1.873,-0l-0,4.114l-3.399,-4.114l-1.546,-0l0,7.348l1.874,0l-0,-4.115l3.409,4.115l1.535,0Z" style="fill:#0b0e11;fill-rule:nonzero;"/><path d="M78.589,10.668c-0.249,0 -0.488,0.043 -0.717,0.128c-0.225,0.086 -0.414,0.199 -0.569,0.338l-0.097,0.088l-0.324,-0.463l0.077,-0.068c0.209,-0.187 0.46,-0.329 0.751,-0.429c0.29,-0.105 0.594,-0.157 0.909,-0.157c0.509,0 0.918,0.13 1.209,0.408c0.293,0.274 0.43,0.672 0.43,1.174l0,2.604l-0.596,0l0,-0.46c-0.108,0.113 -0.235,0.21 -0.382,0.288l-0,0.001l-0.001,0c-0.263,0.136 -0.572,0.201 -0.925,0.201c-0.457,0 -0.834,-0.107 -1.118,-0.333l-0,-0.001c-0.281,-0.228 -0.422,-0.532 -0.422,-0.902c-0,-0.357 0.129,-0.653 0.389,-0.877c0.268,-0.232 0.678,-0.336 1.204,-0.336l1.24,-0l0,-0.2c0,-0.345 -0.094,-0.588 -0.266,-0.75l-0.001,-0.001c-0.168,-0.162 -0.425,-0.253 -0.791,-0.253Zm1.058,2.326c-0.108,0.256 -0.265,0.448 -0.469,0.58l-0.001,0.001c-0.205,0.135 -0.46,0.206 -0.77,0.206c-0.333,0 -0.575,-0.07 -0.74,-0.194c-0.161,-0.127 -0.242,-0.295 -0.242,-0.517c-0,-0.215 0.073,-0.373 0.214,-0.488c0.146,-0.116 0.397,-0.185 0.776,-0.185l1.232,-0l0,0.597Z" style="fill:#0b0e11;fill-opacity:0.75;"/><path d="M72.94,12.419l3.386,0l0.015,-0.217l0,-0.004c0,-0.398 -0.087,-0.758 -0.264,-1.078c-0.171,-0.318 -0.411,-0.567 -0.717,-0.743c-0.302,-0.182 -0.644,-0.272 -1.021,-0.272c-0.378,0 -0.722,0.09 -1.029,0.272c-0.307,0.181 -0.548,0.435 -0.724,0.758l-0.001,0.001c-0.172,0.319 -0.256,0.679 -0.256,1.077c-0,0.404 0.09,0.767 0.273,1.088l0,0.001c0.188,0.319 0.446,0.569 0.772,0.749c0.327,0.181 0.698,0.27 1.109,0.27c0.317,0 0.613,-0.058 0.886,-0.174c0.278,-0.117 0.511,-0.286 0.695,-0.506l0.064,-0.077l-0.376,-0.425l-0.087,0.106c-0.134,0.165 -0.302,0.292 -0.508,0.38c-0.201,0.083 -0.423,0.126 -0.667,0.126c-0.296,-0 -0.56,-0.062 -0.794,-0.182c-0.23,-0.121 -0.411,-0.29 -0.546,-0.507c-0.116,-0.191 -0.186,-0.404 -0.21,-0.643Zm0.704,-1.577l0.001,-0.001l0.001,0c0.203,-0.115 0.433,-0.173 0.693,-0.173c0.26,0 0.49,0.058 0.693,0.173c0.205,0.115 0.37,0.275 0.496,0.479c0.106,0.17 0.172,0.361 0.199,0.574l-2.774,0c0.029,-0.213 0.096,-0.405 0.197,-0.576c0.127,-0.208 0.291,-0.366 0.494,-0.476Z" style="fill:#0b0e11;fill-opacity:0.75;"/><path d="M67.759,13.578c0.212,0.226 0.501,0.408 0.861,0.547l0.002,0.001c0.367,0.135 0.751,0.203 1.153,0.203c0.431,-0 0.801,-0.064 1.107,-0.198c0.303,-0.132 0.536,-0.312 0.687,-0.546c0.154,-0.229 0.232,-0.485 0.232,-0.763c-0,-0.331 -0.09,-0.607 -0.28,-0.814c-0.174,-0.199 -0.386,-0.347 -0.635,-0.444c-0.239,-0.093 -0.555,-0.187 -0.947,-0.283c-0.346,-0.085 -0.616,-0.164 -0.812,-0.236c-0.188,-0.07 -0.342,-0.169 -0.465,-0.296c-0.111,-0.114 -0.172,-0.271 -0.172,-0.483c0,-0.273 0.109,-0.493 0.334,-0.667c0.224,-0.173 0.565,-0.269 1.042,-0.269c0.236,-0 0.475,0.036 0.717,0.108l0.001,0c0.246,0.072 0.47,0.177 0.671,0.315l0.113,0.077l0.243,-0.52l-0.08,-0.056c-0.218,-0.153 -0.475,-0.273 -0.767,-0.362c-0.294,-0.088 -0.593,-0.132 -0.898,-0.132c-0.43,-0 -0.798,0.064 -1.1,0.197l-0,0.001c-0.294,0.133 -0.521,0.316 -0.672,0.554c-0.148,0.23 -0.222,0.485 -0.222,0.762c-0,0.336 0.086,0.618 0.27,0.834l0.002,0.003c0.179,0.199 0.393,0.347 0.643,0.444l0,0c0.244,0.092 0.562,0.187 0.953,0.282l0.002,0.001c0.341,0.079 0.608,0.156 0.804,0.228c0.187,0.07 0.341,0.169 0.464,0.296c0.112,0.114 0.172,0.271 0.172,0.483c0,0.267 -0.11,0.481 -0.339,0.65c-0.229,0.17 -0.582,0.263 -1.075,0.263c-0.335,0 -0.653,-0.057 -0.958,-0.172c-0.301,-0.121 -0.535,-0.273 -0.708,-0.453l-0.104,-0.109l-0.299,0.489l0.06,0.065Z" style="fill:#0b0e11;fill-opacity:0.75;"/><rect x="81.186" y="8.412" width="0.696" height="5.917" style="fill:#0b0e11;fill-opacity:0.75;fill-rule:nonzero;"/><path d="M60.531,15.577l0.001,0.001c0.62,0.328 1.312,0.491 2.075,0.491c0.762,0 1.452,-0.163 2.065,-0.492c0.612,-0.327 1.096,-0.779 1.449,-1.352l0.001,-0.001c0.353,-0.582 0.53,-1.233 0.53,-1.951c-0,-0.718 -0.176,-1.366 -0.53,-1.941c-0.353,-0.581 -0.837,-1.036 -1.45,-1.364c-0.613,-0.328 -1.303,-0.491 -2.065,-0.491c-0.763,-0 -1.455,0.163 -2.075,0.491l-0.001,0c-0.613,0.328 -1.097,0.783 -1.45,1.364l0,0c-0.347,0.575 -0.519,1.223 -0.519,1.941c-0,0.717 0.172,1.368 0.519,1.95l0.001,0.002c0.353,0.573 0.837,1.025 1.449,1.352Zm3.924,-2.183l-0,0.001l-0.001,0.001c-0.181,0.327 -0.432,0.582 -0.755,0.768c-0.323,0.18 -0.687,0.27 -1.092,0.27c-0.406,0 -0.769,-0.09 -1.092,-0.27c-0.323,-0.186 -0.578,-0.441 -0.766,-0.769c-0.181,-0.326 -0.273,-0.699 -0.273,-1.122c0,-0.423 0.092,-0.796 0.273,-1.122c0.188,-0.328 0.442,-0.58 0.765,-0.759l0.001,-0.001l0.001,0c0.323,-0.186 0.686,-0.279 1.091,-0.279c0.405,-0 0.768,0.093 1.091,0.279l0.001,0l0,0.001c0.323,0.179 0.574,0.431 0.755,0.758l0.001,0.001l0,0c0.187,0.327 0.282,0.699 0.282,1.122c0,0.422 -0.095,0.795 -0.282,1.121Z" style="fill:#0b0e11;"/><path d="M55.921,11.978l0.01,3.969l1.791,0l-0.021,-7.348l-1.546,-0l-2.581,4.313l-2.622,-4.313l-1.556,-0l0,7.348l1.791,0l0,-3.883l1.922,3.131l0.88,-0l1.932,-3.217Z" style="fill:#0b0e11;fill-rule:nonzero;"/><path d="M48.459,15.947l-0,-1.554l-3.909,0l0,-1.414l3.334,-0l0,-1.513l-3.334,-0l0,-1.314l3.775,0l0,-1.553l-5.658,-0l-0,7.348l5.792,0Zm-0.448,-9.392l-2.108,0l-1.605,1.696l1.562,0l2.151,-1.696Z" style="fill:#0b0e11;"/></g></g><defs><linearGradient id="_Linear1" x1="0" y1="0" x2="1" y2="0" gradientUnits="userSpaceOnUse" gradientTransform="matrix(-29.3006,-4.11391,4.11391,-29.3006,29.8177,22.2183)"><stop offset="0" style="stop-color:#0b0e11;stop-opacity:0.3"/><stop offset="0.38" style="stop-color:#0b0e11;stop-opacity:0.3"/><stop offset="0.96" style="stop-color:#0b0e11;stop-opacity:0"/><stop offset="1" style="stop-color:#0b0e11;stop-opacity:0"/></linearGradient><linearGradient id="_Linear2" x1="0" y1="0" x2="1" y2="0" gradientUnits="userSpaceOnUse" gradientTransform="matrix(10.1934,24.4905,-24.4905,10.1934,18.9253,7.82563e-05)"><stop offset="0" style="stop-color:#86dbbe;stop-opacity:1"/><stop offset="0.48" style="stop-color:#58a088;stop-opacity:1"/><stop offset="1" style="stop-color:#245c49;stop-opacity:1"/></linearGradient><linearGradient id="_Linear3" x1="0" y1="0" x2="1" y2="0" gradientUnits="userSpaceOnUse" gradientTransform="matrix(1.34076e-15,-21.8963,21.8963,1.34076e-15,13.4511,21.8963)"><stop offset="0" style="stop-color:#5c3824;stop-opacity:1"/><stop offset="1" style="stop-color:#f2b158;stop-opacity:1"/></linearGradient><linearGradient id="_Linear4" x1="0" y1="0" x2="1" y2="0" gradientUnits="userSpaceOnUse" gradientTransform="matrix(10.1934,24.4906,-24.4906,10.1934,18.2042,0.721194)"><stop offset="0" style="stop-color:#245c49;stop-opacity:1"/><stop offset="0.48" style="stop-color:#58a088;stop-opacity:1"/><stop offset="1" style="stop-color:#86dbbe;stop-opacity:1"/></linearGradient><linearGradient id="_Linear5" x1="0" y1="0" x2="1" y2="0" gradientUnits="userSpaceOnUse" gradientTransform="matrix(1.34076e-15,-21.8963,21.8963,1.34076e-15,12.7301,22.6175)"><stop offset="0" style="stop-color:#f2b158;stop-opacity:1"/><stop offset="1" style="stop-color:#5c3824;stop-opacity:1"/></linearGradient><linearGradient id="_Linear6" x1="0" y1="0" x2="1" y2="0" gradientUnits="userSpaceOnUse" gradientTransform="matrix(32.2425,0,0,32.2425,51.4253,16.1387)"><stop offset="0" style="stop-color:#f0af57;stop-opacity:1"/><stop offset="0.71" style="stop-color:#f0af57;stop-opacity:1"/><stop offset="1" style="stop-color:#bf8746;stop-opacity:1"/></linearGradient></defs></svg>