<?xml version="1.0" encoding="UTF-8" standalone="no"?><!DOCTYPE svg PUBLIC "-//W3C//DTD SVG 1.1//EN" "http://www.w3.org/Graphics/SVG/1.1/DTD/svg11.dtd"><svg width="100%" height="100%" viewBox="0 0 23 23" version="1.1" xmlns="http://www.w3.org/2000/svg" xmlns:xlink="http://www.w3.org/1999/xlink" xml:space="preserve" xmlns:serif="http://www.serif.com/" style="fill-rule:evenodd;clip-rule:evenodd;stroke-linejoin:round;stroke-miterlimit:2;"><rect id="logo-mark" x="0" y="0" width="22.617" height="22.624" style="fill:none;"/><g><g><path d="M11.669,0l10.948,0l0,21.896l-0.714,0.728l-10.234,-11.676l-0.717,-10.227l0.717,-0.721Z" style="fill:url(#_Linear1);fill-rule:nonzero;"/><path d="M11.669,21.896l-0.717,0.728l-10.952,-1.442l0,-20.461l0.721,-0.721l10.948,11.309l0,10.587Z" style="fill:url(#_Linear2);fill-rule:nonzero;"/><path d="M10.948,0.721l10.948,0l0,21.896l-10.948,-10.948l0,-10.948Z" style="fill:url(#_Linear3);fill-rule:nonzero;"/><path d="M10.948,22.624l-10.948,0l0,-21.903l10.948,10.948l0,10.955Z" style="fill:url(#_Linear4);fill-rule:nonzero;"/></g></g><defs><linearGradient id="_Linear1" x1="0" y1="0" x2="1" y2="0" gradientUnits="userSpaceOnUse" gradientTransform="matrix(10.1934,24.4905,-24.4905,10.1934,11.6693,7.82563e-05)"><stop offset="0" style="stop-color:#86dbbe;stop-opacity:1"/><stop offset="0.48" style="stop-color:#58a088;stop-opacity:1"/><stop offset="1" style="stop-color:#245c49;stop-opacity:1"/></linearGradient><linearGradient id="_Linear2" x1="0" y1="0" x2="1" y2="0" gradientUnits="userSpaceOnUse" gradientTransform="matrix(1.34076e-15,-21.8963,21.8963,1.34076e-15,6.1951,21.8963)"><stop offset="0" style="stop-color:#5c3824;stop-opacity:1"/><stop offset="1" style="stop-color:#f2b158;stop-opacity:1"/></linearGradient><linearGradient id="_Linear3" x1="0" y1="0" x2="1" y2="0" gradientUnits="userSpaceOnUse" gradientTransform="matrix(10.1934,24.4906,-24.4906,10.1934,10.9482,0.721194)"><stop offset="0" style="stop-color:#245c49;stop-opacity:1"/><stop offset="0.48" style="stop-color:#58a088;stop-opacity:1"/><stop offset="1" style="stop-color:#86dbbe;stop-opacity:1"/></linearGradient><linearGradient id="_Linear4" x1="0" y1="0" x2="1" y2="0" gradientUnits="userSpaceOnUse" gradientTransform="matrix(1.34076e-15,-21.8963,21.8963,1.34076e-15,5.4741,22.6175)"><stop offset="0" style="stop-color:#f2b158;stop-opacity:1"/><stop offset="1" style="stop-color:#5c3824;stop-opacity:1"/></linearGradient></defs></svg>